# xmcd
#
# Track frame offsets:
#	150
#	24726
#	44008
#	64979
#	85268
#	107371
#	130045
#	156182
#	169184
#	192398
#	217130
#	236913
#	251405
#	272073
#	287659
#	308971
#	326644
#	345129
#
# Disc length: 4798 seconds
#
# Revision: 0
# Processed by: cddbd v1.5.2PL0 Copyright (c) Steve Scherf et al.
# Submitted via: EasyCDDAExtractor 12.0.1.1
#
DISCID=0c12bc12
DTITLE=Various Artist - Mood Making Music From Just Us Steppin'
DYEAR=2008
DGENRE=R&B
TTITLE0=The Isley Brothers - Hello It's Me
TTITLE1=Luther Vandross - Promise Me
TTITLE2=LTD w/Jeffrey Osborne - Concentrate On You
TTITLE3=Freddie Jackson - You Are My Lady
TTITLE4=Alexander O'Neal - If You Were Here Tonight
TTITLE5=The Whispers - Say Yes
TTITLE6=Teddy Pendergrass - Turn Off The Lights
TTITLE7=LTD - We Both Deserve Each Others Love
TTITLE8=Rene and Angela - You Don't Have To Cry
TTITLE9=The O'Jays - Cried Together
TTITLE10=Norman Connors - You Are My Starship
TTITLE11=The Stylistics - Betcha My Golly Wow
TTITLE12=Maze w/Frankie Beverly - Lady Of Magic
TTITLE13=The O'Jays - Let Me Make Love To You
TTITLE14=Cameo - Sparkle (In Your Eyes)
TTITLE15=Ray, Goodman and Brown - Special Lady
TTITLE16=LTD - Love Ballard
TTITLE17=Enchantment - It's You That I Need
EXTD=
EXTT0=
EXTT1=
EXTT2=
EXTT3=
EXTT4=
EXTT5=
EXTT6=
EXTT7=
EXTT8=
EXTT9=
EXTT10=
EXTT11=
EXTT12=
EXTT13=
EXTT14=
EXTT15=
EXTT16=
EXTT17=
PLAYORDER=
